<?xml version="1.0" encoding="iso-8859-1"?>
<!-- Generator: Adobe Illustrator 19.2.0, SVG Export Plug-In . SVG Version: 6.00 Build 0)  -->
<!DOCTYPE svg PUBLIC "-//W3C//DTD SVG 1.1//EN" "http://www.w3.org/Graphics/SVG/1.1/DTD/svg11.dtd">
<svg version="1.1" xmlns="http://www.w3.org/2000/svg" xmlns:xlink="http://www.w3.org/1999/xlink" x="0px" y="0px"
	 viewBox="0 0 32 32" style="enable-background:new 0 0 32 32;" xml:space="preserve">
<g id="list-add">
	<rect style="fill:none;" width="32" height="32"/>
	<g>
		<path style="fill:#333333;" d="M24.5,3C21.462,3,19,5.462,19,8.5c0,3.038,2.462,5.5,5.5,5.5S30,11.538,30,8.5
			C30,5.462,27.538,3,24.5,3z M28,9h-3v3h-1V9h-3V8h3V5h1v3h3V9z M8,19h16v3H8V19z M18.444,12H8V9h9.525
			C17.602,10.088,17.926,11.106,18.444,12z M24,15.475V17H8v-3h12.179C21.246,14.84,22.562,15.373,24,15.475z"/>
	</g>
</g>
<g id="Calque_1">
</g>
</svg>
